<svg width="100" height="100" viewBox="0 0 100 100" fill="none" xmlns="http://www.w3.org/2000/svg">
<path d="M54.1667 35.4167H37.5001C29.4459 35.4167 22.9167 28.8875 22.9167 20.8333C22.9167 12.7792 29.4459 6.25 37.5001 6.25H54.1667V35.4167Z" fill="#E64A19"/>
<path d="M52.0834 64.5833H37.5001C29.4459 64.5833 22.9167 58.0541 22.9167 50C22.9167 41.9458 29.4459 35.4166 37.5001 35.4166H52.0834V64.5833Z" fill="#7C4DFF"/>
<path d="M37.5001 93.75C29.4459 93.75 22.9167 87.2209 22.9167 79.1667C22.9167 71.1125 29.4459 64.5834 37.5001 64.5834H52.0834V79.1667C52.0834 87.2209 45.5542 93.75 37.5001 93.75Z" fill="#66BB6A"/>
<path d="M66.6666 35.4167H52.0833V6.25H66.6666C74.7208 6.25 81.2499 12.7792 81.2499 20.8333C81.2499 28.8875 74.7208 35.4167 66.6666 35.4167Z" fill="#FF7043"/>
<path d="M66.6666 64.5833C74.7207 64.5833 81.2499 58.0541 81.2499 50C81.2499 41.9458 74.7207 35.4166 66.6666 35.4166C58.6124 35.4166 52.0833 41.9458 52.0833 50C52.0833 58.0541 58.6124 64.5833 66.6666 64.5833Z" fill="#29B6F6"/>
</svg>
