<svg width="100" height="100" viewBox="0 0 100 100" fill="none" xmlns="http://www.w3.org/2000/svg">
<path d="M44.1584 25.5749L29.9834 18.4208L14.4209 26.1854L28.9834 33.4958L44.1584 25.5749Z" fill="#00ACC1"/>
<path d="M50.6605 28.8541L65.523 36.3604L50.1021 44.102L35.5188 36.7791L50.6605 28.8541Z" fill="#00ACC1"/>
<path d="M70.5126 18.5271L85.7834 26.1854L72.123 33.0417L57.2292 25.5292L70.5126 18.5271Z" fill="#00ACC1"/>
<path d="M63.9374 15.2292L50.1895 8.33337L36.5916 15.1209L50.7582 22.2646L63.9374 15.2292Z" fill="#00ACC1"/>
<path d="M53.1917 74.4271V93.1876L69.8437 84.8751L69.8292 66.1084L53.1917 74.4271Z" fill="#00ACC1"/>
<path d="M69.8208 59.5563L69.8021 40.9875L53.1917 49.2438V67.8209L69.8208 59.5563Z" fill="#00ACC1"/>
<path d="M89.8146 56.0792V74.9105L75.6083 81.998L75.5979 63.2521L89.8146 56.0792Z" fill="#00ACC1"/>
<path d="M89.8146 49.4916V31.0375L75.5813 38.1125L75.5938 56.7187L89.8146 49.4916Z" fill="#00ACC1"/>
<path d="M47.3126 49.2437L36.0959 43.602V67.9749C36.0959 67.9749 22.3751 38.7833 21.1063 36.1625C20.9417 35.8229 20.2709 35.452 20.098 35.3604C17.6251 34.0687 10.4167 30.4187 10.4167 30.4187V73.4937L20.3897 78.8395V56.3145C20.3897 56.3145 33.9626 82.3979 34.1022 82.6833C34.2417 82.9687 35.598 85.7145 37.0563 86.6812C38.9918 87.9687 47.3042 92.9645 47.3042 92.9645L47.3126 49.2437Z" fill="#448AFF"/>
</svg>
