<svg width="83" height="100" viewBox="0 0 83 100" fill="none" xmlns="http://www.w3.org/2000/svg">
<g clip-path="url(#clip0_20_56)">
<path d="M70.4132 29.0666C86.6364 45.2898 86.6364 71.3145 70.4132 87.6504C54.528 103.874 28.3906 103.874 12.1674 87.6504C-4.0558 71.4272 -4.0558 45.2898 12.1674 29.0666L41.234 0V14.5333L38.5301 17.2372L19.2651 36.5022C7.09765 48.4443 7.09765 68.0474 19.2651 80.2148C31.2071 92.3822 50.8102 92.3822 62.9776 80.2148C75.145 68.2727 75.145 48.6696 62.9776 36.5022L70.4132 29.0666ZM55.8799 27.264C52.8933 27.264 50.4722 24.8429 50.4722 21.8563C50.4722 18.8697 52.8933 16.4485 55.8799 16.4485C58.8666 16.4485 61.2877 18.8697 61.2877 21.8563C61.2877 24.8429 58.8666 27.264 55.8799 27.264Z" fill="#EE4C2C"/>
</g>
<defs>
<clipPath id="clip0_20_56">
<rect width="82.5806" height="100" fill="white"/>
</clipPath>
</defs>
</svg>
